<svg width="1200" height="800" viewBox="0 0 1200 800" fill="none" xmlns="http://www.w3.org/2000/svg">
  <rect width="1200" height="800" rx="40" fill="#0D0D10"/>
  <rect x="90" y="90" width="1020" height="620" rx="34" fill="#121216" stroke="#FFFFFF" stroke-opacity="0.15" stroke-width="3"/>
  <rect x="180" y="180" width="840" height="90" rx="20" fill="#18181B"/>
  <rect x="180" y="320" width="260" height="250" rx="24" fill="#1E1E23"/>
  <rect x="470" y="320" width="260" height="250" rx="24" fill="#23232A"/>
  <rect x="760" y="320" width="260" height="250" rx="24" fill="#1A1A1F"/>
  <rect x="220" y="370" width="120" height="12" rx="6" fill="#FFFFFF" fill-opacity="0.75"/>
  <rect x="220" y="398" width="180" height="10" rx="5" fill="#A1A1AA"/>
  <rect x="220" y="430" width="140" height="10" rx="5" fill="#A1A1AA"/>
  <rect x="510" y="370" width="120" height="12" rx="6" fill="#FFFFFF" fill-opacity="0.8"/>
  <rect x="510" y="398" width="180" height="10" rx="5" fill="#A1A1AA"/>
  <rect x="800" y="370" width="100" height="12" rx="6" fill="#FFFFFF" fill-opacity="0.8"/>
  <rect x="800" y="398" width="160" height="10" rx="5" fill="#A1A1AA"/>
</svg>
