<svg width="1200" height="800" viewBox="0 0 1200 800" fill="none" xmlns="http://www.w3.org/2000/svg">
  <rect width="1200" height="800" rx="40" fill="#050816"/>
  <rect x="90" y="90" width="1020" height="620" rx="32" fill="#10172A" stroke="#7C3AED" stroke-opacity="0.3" stroke-width="3"/>
  <rect x="160" y="170" width="170" height="360" rx="24" fill="#151C2E" stroke="#7C3AED" stroke-opacity="0.4"/>
  <rect x="360" y="170" width="300" height="170" rx="24" fill="#171F33" stroke="#7C3AED" stroke-opacity="0.4"/>
  <rect x="690" y="170" width="310" height="360" rx="24" fill="#171F33" stroke="#7C3AED" stroke-opacity="0.4"/>
  <rect x="160" y="560" width="840" height="70" rx="20" fill="#1A2340"/>
  <rect x="220" y="220" width="80" height="220" rx="16" fill="#6D28D9"/>
  <rect x="420" y="220" width="90" height="80" rx="16" fill="#8B5CF6"/>
  <rect x="420" y="320" width="140" height="16" rx="8" fill="#9F7AEA"/>
  <rect x="760" y="220" width="160" height="16" rx="8" fill="#A78BFA"/>
  <rect x="760" y="260" width="120" height="16" rx="8" fill="#C4B5FD"/>
  <rect x="760" y="300" width="180" height="16" rx="8" fill="#8B5CF6"/>
</svg>
