<svg width="670" height="185" viewBox="0 0 670 185" fill="none" xmlns="http://www.w3.org/2000/svg">
<path d="M65.5742 0.0670662C58.9091 0.197452 52.2698 -0.105213 45.652 0.0408577C41.4849 0.216476 37.111 0.0367582 32.9223 0.100003C29.4612 0.152269 26.2436 -0.186369 22.8595 0.765946C20.3993 1.46786 18.1797 2.83866 16.4446 4.7275C14.7067 6.63729 13.201 9.38186 11.8029 11.6219L4.6604 23.2427C3.62725 24.9558 2.31854 26.7819 1.30445 28.6111C0.656126 29.7806 0.412987 31.1189 0.412987 32.4577V40.965C0.412987 41.5239 0.863578 41.9769 1.41941 41.9769H18.8686C19.4244 41.9769 19.875 41.5239 19.875 40.965V37.664C19.875 36.9265 20.0262 36.1929 20.3812 35.5476C21.476 33.558 22.9652 31.7065 24.112 29.7712C25.7414 27.5247 28.6193 21.5287 30.5929 20.0024C32.2087 19.6232 35.9888 19.7244 37.8205 19.7248L59.7062 19.7263C62.0648 19.7245 65.08 19.6479 67.3722 19.8713C68.6483 20.785 69.9924 23.6873 70.8197 25.1184L75.9479 33.9929C77.7061 36.9988 79.7441 39.9303 81.4042 42.9519C84.0904 47.841 82.0202 50.9213 79.4261 55.1652C78.3281 56.9609 77.14 59.1421 76.0687 61.0344L70.7261 70.6248C69.0458 73.5766 66.8997 77.9283 63.032 78.3781C59.6353 78.7728 55.9291 78.4338 52.459 78.4833C48.6109 78.5314 44.7618 78.543 40.9133 78.5183C37.8724 78.5005 34.4968 78.5183 31.0166 78.9013C28.4784 79.3834 24.181 79.959 20.0793 83.3856C17.0577 85.9098 14.0636 89.8796 11.4807 92.8844C9.87644 94.8521 8.03816 96.6923 6.52787 98.7227C3.69307 102.533 0.0948568 106.733 0.0242561 111.745C-0.018366 114.772 0.0204817 117.779 0.0318039 120.796L0.0373401 136.024C0.043127 138.758 0.0306959 141.49 0 144.223C0 152.901 2.03962 152.901 11.5458 152.901L24.8306 152.876L49.7396 152.886C51.4567 152.887 56.1518 152.886 59.4153 152.886L61.5367 152.886C61.9273 152.886 62.2826 152.658 62.3572 152.273C62.7675 150.153 62.1333 145.416 62.7934 143.385C63.7214 140.532 64.9265 138.586 66.4649 136.003C66.9994 135.105 67.7204 134.094 68.1094 133.125C68.1733 132.966 68.0529 132.799 67.8822 132.799C64.6812 132.805 61.096 132.888 58.1825 132.892L40.9007 132.913L29.1597 132.874C26.5853 132.88 22.6467 132.968 20.1296 132.713C20.1251 129.46 19.6083 116.076 20.4773 113.833C21.291 111.733 27.796 104.406 29.6036 102.584C31.6421 100.53 34.1717 98.495 37.1955 98.5046L53.009 98.6144C56.3599 98.6084 60.7891 98.7905 64.0746 98.492C68.9885 98.0452 75.4578 96.3826 79.094 92.9806C81.0092 91.1369 82.4715 88.0343 83.9122 85.7995C86.8238 81.2813 89.2252 76.4711 91.9611 71.8558L98.208 61.4867C100.504 57.6621 103.059 54.1958 102.913 49.4702C102.82 46.4997 103.082 43.3541 101.997 40.5167C100.973 37.9232 99.2612 35.2092 97.8472 32.7806L90.3141 19.9803C88.1749 16.2951 86.2336 12.4752 83.9767 8.8502C83.0704 7.39517 81.9054 5.02318 80.747 3.87906C76.513 -0.302385 71.1095 -0.0412089 65.5742 0.0670662Z" fill="url(#paint0_linear_20_3)"/>
<path d="M130.974 50.3865C131.924 50.3647 132.97 50.433 133.903 50.6182C136.611 51.155 138.441 52.6066 139.95 54.8824C141.938 57.8817 143.586 61.218 145.381 64.3459C147.422 67.9027 149.633 71.3493 151.658 74.9199C153.094 77.4542 156.086 81.8323 156.706 84.4744C157.085 86.0899 157.125 88.0364 156.663 89.6397C155.708 92.9512 151.734 99.1619 149.91 102.266C147.833 105.802 145.862 109.34 143.926 112.957C143.35 114.034 141.029 117.278 141.205 118.298C141.458 119.772 142.889 121.655 143.62 122.969C146.784 128.65 150.269 134.149 153.463 139.81C154.436 141.535 155.817 143.496 156.391 145.385C156.971 147.291 156.847 149.667 156.405 151.589C155.923 153.677 148.349 165.662 146.804 168.316C144.339 172.551 142.219 177.034 139.424 181.067C138.787 182 137.968 182.793 137.018 183.399C133.998 185.283 129.895 184.915 126.43 184.913L117.251 184.915L105.657 184.905C101.014 184.924 93.8416 185.818 90.7429 181.711C89.1497 179.599 87.6838 176.648 86.3629 174.31C83.9012 169.859 81.3846 165.439 78.8137 161.052C77.5954 158.678 75.3989 155.969 74.3895 153.384C73.61 151.387 72.91 147.602 73.4656 145.504C74.4428 141.81 77.1088 138.08 79.0205 134.805C80.9805 131.447 82.9063 128.149 84.7581 124.749C85.9945 122.478 87.4735 120.225 88.4085 117.862C87.2269 114.741 86.0086 112.6 84.3702 109.691C83.4327 108.027 81.6936 104.951 81.2483 103.13C82.0775 101.932 85.4722 100.677 86.5793 99.4032C88.3082 97.4152 88.6137 94.8922 89.8655 92.7542C90.0604 92.4214 90.5348 92.4672 90.7097 92.8111C91.681 94.7207 92.9756 96.5097 94.0324 98.3645C95.0841 100.21 99.4228 109.331 100.996 109.924C101.495 110.112 102.042 110.164 102.571 110.189C106.03 110.353 109.533 110.193 112.999 110.222C117.572 110.261 122.246 110.47 126.81 110.266C127.219 110.247 127.833 110.23 128.197 110.038C128.866 109.686 129.454 108.86 129.874 108.247C130.662 107.098 131.3 105.828 131.996 104.622C133.835 101.432 135.537 98.2259 137.275 94.9817C138.655 92.4053 140.429 89.7333 141.419 86.9814C140.847 85.2035 138.324 80.8077 137.275 78.9802C134.832 74.721 132.087 69.0933 129.1 65.3173C125.856 64.6342 107.773 65.5005 106.818 64.4992C106.97 63.5186 110.051 58.8188 110.639 57.1577C111.179 55.6327 111.866 51.5082 112.568 50.686C113.903 50.2089 128.331 50.4097 130.974 50.3865ZM122.064 170.41C129.51 170.309 128.29 171.439 132.249 164.774C134.518 160.974 136.701 157.123 138.798 153.226C139.472 151.996 140.899 149.641 141.336 148.43C141.151 147.783 140.851 146.888 140.525 146.293C138.64 142.86 130.797 128.137 128.708 126.119C128.045 125.479 109.499 125.749 107.518 125.778C106.564 125.785 105.05 125.856 104.145 125.791C100.74 125.55 100.471 126.367 98.7565 129.137C97.1553 131.724 95.8198 134.667 94.3167 137.33C93.1276 139.683 88.882 146.401 88.3808 148.483C88.5121 149.366 89.0088 150.249 89.4194 151.031C90.9185 153.887 92.7084 156.587 94.3298 159.371C96.0054 162.25 97.5402 165.24 99.3105 168.058C99.6603 168.615 100.249 169.683 100.799 170.043C101.826 170.716 119.551 170.504 122.064 170.41Z" fill="url(#paint1_linear_20_3)"/>
<path d="M201.12 116V101.6C201.12 98.08 201.6 95.08 202.56 92.6C203.6 90.12 205.36 87.88 207.84 85.88C210.32 83.8 213.68 81.8 217.92 79.88L234.36 72.32C238.36 70.48 241.52 68.12 243.84 65.24C246.16 62.28 247.32 58.48 247.32 53.84C247.32 48.24 245.76 43.88 242.64 40.76C239.52 37.64 235.12 36.08 229.44 36.08C223.84 36.08 219.44 37.64 216.24 40.76C213.04 43.88 211.44 48.24 211.44 53.84H200.16C200.16 48.8 201.2 44.16 203.28 39.92C205.44 35.68 208.68 32.32 213 29.84C217.32 27.28 222.8 26 229.44 26C236.08 26 241.52 27.28 245.76 29.84C250.08 32.32 253.28 35.6 255.36 39.68C257.52 43.76 258.6 48.2 258.6 53V54.68C258.6 61 256.76 66.32 253.08 70.64C249.48 74.96 244.6 78.52 238.44 81.32L222 88.88C218.32 90.56 215.84 92.24 214.56 93.92C213.28 95.6 212.64 97.84 212.64 100.64V111.68L209.52 106.16H259.68V116H201.12Z" fill="white"/>
<path d="M338.18 116V28.4H349.94V116H338.18ZM278.9 116V28.4H290.66V116H278.9ZM288.26 77.72V67.16H340.58V77.72H288.26Z" fill="white"/>
<path d="M376.785 116V51.92H388.305V116H376.785ZM366.945 61.04V51.92H388.305V61.04H366.945ZM380.025 41.6C377.465 41.6 375.545 40.92 374.265 39.56C373.065 38.2 372.465 36.48 372.465 34.4C372.465 32.32 373.065 30.6 374.265 29.24C375.545 27.88 377.465 27.2 380.025 27.2C382.585 27.2 384.465 27.88 385.665 29.24C386.945 30.6 387.585 32.32 387.585 34.4C387.585 36.48 386.945 38.2 385.665 39.56C384.465 40.92 382.585 41.6 380.025 41.6Z" fill="white"/>
<path d="M424.259 116L402.419 51.92H414.419L435.779 116H424.259ZM427.139 116V106.88H441.059V116H427.139ZM432.659 116L451.259 51.92H462.539L443.579 116H432.659Z" fill="white"/>
<path d="M503.678 118.16C498.078 118.16 493.238 117.2 489.158 115.28C485.078 113.36 481.758 110.84 479.198 107.72C476.638 104.52 474.718 100.96 473.438 97.04C472.238 93.12 471.638 89.12 471.638 85.04V82.88C471.638 78.72 472.238 74.68 473.438 70.76C474.718 66.84 476.638 63.32 479.198 60.2C481.758 57 484.998 54.48 488.918 52.64C492.918 50.72 497.598 49.76 502.958 49.76C509.918 49.76 515.638 51.28 520.118 54.32C524.678 57.28 528.038 61.12 530.198 65.84C532.438 70.56 533.558 75.6 533.558 80.96V86.12H476.678V77.48H525.158L522.518 82.16C522.518 77.6 521.798 73.68 520.358 70.4C518.918 67.04 516.758 64.44 513.878 62.6C510.998 60.76 507.358 59.84 502.958 59.84C498.398 59.84 494.598 60.88 491.558 62.96C488.598 65.04 486.358 67.88 484.838 71.48C483.398 75.08 482.678 79.24 482.678 83.96C482.678 88.52 483.398 92.64 484.838 96.32C486.358 99.92 488.678 102.8 491.798 104.96C494.918 107.04 498.878 108.08 503.678 108.08C508.718 108.08 512.798 106.96 515.918 104.72C519.118 102.48 521.038 99.88 521.678 96.92H532.478C531.598 101.32 529.838 105.12 527.198 108.32C524.558 111.52 521.238 113.96 517.238 115.64C513.238 117.32 508.718 118.16 503.678 118.16Z" fill="white"/>
<path d="M200.24 165V135.8H204.16V165H200.24ZM203.36 165V161.48H217.52V165H203.36ZM203.36 151.92V148.4H216.28V151.92H203.36ZM203.36 139.32V135.8H217.12V139.32H203.36Z" fill="#BEBEBE"/>
<path d="M223.664 165V143.64H226.704V152.8H226.224C226.224 150.693 226.504 148.92 227.064 147.48C227.651 146.013 228.531 144.907 229.704 144.16C230.878 143.387 232.358 143 234.144 143H234.304C236.998 143 238.984 143.84 240.264 145.52C241.571 147.2 242.224 149.627 242.224 152.8V165H238.384V152C238.384 150.347 237.918 149.027 236.984 148.04C236.051 147.027 234.771 146.52 233.144 146.52C231.464 146.52 230.104 147.04 229.064 148.08C228.024 149.12 227.504 150.507 227.504 152.24V165H223.664Z" fill="#BEBEBE"/>
<path d="M257.33 173.32C256.344 173.32 255.344 173.28 254.33 173.2C253.344 173.12 252.397 173.013 251.49 172.88V169.64C252.45 169.773 253.45 169.88 254.49 169.96C255.557 170.067 256.557 170.12 257.49 170.12C259.437 170.12 260.984 169.853 262.13 169.32C263.304 168.813 264.144 168 264.65 166.88C265.184 165.787 265.45 164.373 265.45 162.64V158.56L266.73 155.52C266.65 157.68 266.197 159.48 265.37 160.92C264.544 162.333 263.464 163.4 262.13 164.12C260.824 164.813 259.37 165.16 257.77 165.16C256.277 165.16 254.904 164.88 253.65 164.32C252.424 163.733 251.357 162.933 250.45 161.92C249.57 160.907 248.877 159.747 248.37 158.44C247.89 157.107 247.65 155.707 247.65 154.24V153.52C247.65 152.027 247.904 150.64 248.41 149.36C248.917 148.053 249.624 146.92 250.53 145.96C251.437 145 252.517 144.253 253.77 143.72C255.05 143.187 256.45 142.92 257.97 142.92C259.757 142.92 261.33 143.307 262.69 144.08C264.05 144.827 265.117 145.933 265.89 147.4C266.69 148.84 267.13 150.613 267.21 152.72L266.09 152.76V143.64H269.13V162.48C269.13 165.04 268.73 167.107 267.93 168.68C267.157 170.28 265.904 171.453 264.17 172.2C262.464 172.947 260.184 173.32 257.33 173.32ZM258.49 161.64C259.77 161.64 260.93 161.36 261.97 160.8C263.037 160.24 263.877 159.44 264.49 158.4C265.13 157.333 265.45 156.067 265.45 154.6V152.76C265.45 151.32 265.117 150.107 264.45 149.12C263.81 148.133 262.97 147.387 261.93 146.88C260.89 146.373 259.757 146.12 258.53 146.12C257.144 146.12 255.917 146.44 254.85 147.08C253.784 147.72 252.957 148.627 252.37 149.8C251.784 150.947 251.49 152.307 251.49 153.88C251.49 155.453 251.784 156.827 252.37 158C252.984 159.173 253.81 160.08 254.85 160.72C255.917 161.333 257.13 161.64 258.49 161.64Z" fill="#BEBEBE"/>
<path d="M285.323 165.72C283.456 165.72 281.843 165.4 280.483 164.76C279.123 164.12 278.016 163.28 277.163 162.24C276.309 161.173 275.669 159.987 275.242 158.68C274.842 157.373 274.642 156.04 274.642 154.68V153.96C274.642 152.573 274.842 151.227 275.242 149.92C275.669 148.613 276.309 147.44 277.163 146.4C278.016 145.333 279.096 144.493 280.402 143.88C281.736 143.24 283.296 142.92 285.082 142.92C287.402 142.92 289.309 143.427 290.802 144.44C292.322 145.427 293.443 146.707 294.163 148.28C294.909 149.853 295.283 151.533 295.283 153.32V155.04H276.323V152.16H292.483L291.603 153.72C291.603 152.2 291.363 150.893 290.883 149.8C290.403 148.68 289.683 147.813 288.723 147.2C287.763 146.587 286.549 146.28 285.082 146.28C283.562 146.28 282.296 146.627 281.283 147.32C280.296 148.013 279.549 148.96 279.043 150.16C278.563 151.36 278.323 152.747 278.323 154.32C278.323 155.84 278.563 157.213 279.043 158.44C279.549 159.64 280.322 160.6 281.362 161.32C282.402 162.013 283.723 162.36 285.323 162.36C287.003 162.36 288.362 161.987 289.402 161.24C290.469 160.493 291.109 159.627 291.323 158.64H294.922C294.629 160.107 294.043 161.373 293.163 162.44C292.283 163.507 291.176 164.32 289.842 164.88C288.509 165.44 287.003 165.72 285.323 165.72Z" fill="#BEBEBE"/>
<path d="M300.735 165V143.64H303.775V152.8H303.295C303.295 150.693 303.575 148.92 304.135 147.48C304.721 146.013 305.601 144.907 306.775 144.16C307.948 143.387 309.428 143 311.215 143H311.375C314.068 143 316.055 143.84 317.335 145.52C318.641 147.2 319.295 149.627 319.295 152.8V165H315.455V152C315.455 150.347 314.988 149.027 314.055 148.04C313.121 147.027 311.841 146.52 310.215 146.52C308.535 146.52 307.175 147.04 306.135 148.08C305.095 149.12 304.575 150.507 304.575 152.24V165H300.735Z" fill="#BEBEBE"/>
<path d="M326.321 165V135.8H330.161V153.24H329.201C329.201 151.133 329.467 149.32 330.001 147.8C330.561 146.253 331.414 145.067 332.561 144.24C333.707 143.413 335.174 143 336.961 143H337.121C339.681 143 341.614 143.853 342.921 145.56C344.227 147.24 344.881 149.653 344.881 152.8V165H341.041V152C341.041 150.267 340.547 148.92 339.561 147.96C338.601 147 337.347 146.52 335.801 146.52C334.094 146.52 332.721 147.093 331.681 148.24C330.667 149.36 330.161 150.84 330.161 152.68V165H326.321Z" fill="#BEBEBE"/>
<path d="M364.827 165V158.6H364.187V151.2C364.187 149.733 363.8 148.627 363.027 147.88C362.28 147.133 361.173 146.76 359.707 146.76C358.88 146.76 358.027 146.773 357.147 146.8C356.267 146.827 355.427 146.853 354.627 146.88C353.827 146.907 353.133 146.947 352.547 147V143.64C353.133 143.587 353.747 143.547 354.387 143.52C355.053 143.467 355.733 143.44 356.427 143.44C357.12 143.413 357.787 143.4 358.427 143.4C360.613 143.4 362.4 143.667 363.787 144.2C365.173 144.707 366.2 145.547 366.867 146.72C367.533 147.893 367.867 149.48 367.867 151.48V165H364.827ZM357.827 165.56C356.227 165.56 354.84 165.293 353.667 164.76C352.52 164.2 351.627 163.4 350.987 162.36C350.373 161.32 350.067 160.067 350.067 158.6C350.067 157.08 350.4 155.813 351.067 154.8C351.76 153.787 352.76 153.027 354.067 152.52C355.373 151.987 356.947 151.72 358.787 151.72H364.587V154.6H358.627C357.08 154.6 355.893 154.973 355.067 155.72C354.24 156.467 353.827 157.427 353.827 158.6C353.827 159.773 354.24 160.72 355.067 161.44C355.893 162.16 357.08 162.52 358.627 162.52C359.533 162.52 360.4 162.36 361.227 162.04C362.053 161.693 362.733 161.133 363.267 160.36C363.827 159.56 364.133 158.467 364.187 157.08L365.227 158.6C365.093 160.12 364.72 161.4 364.107 162.44C363.52 163.453 362.693 164.227 361.627 164.76C360.587 165.293 359.32 165.56 357.827 165.56Z" fill="#BEBEBE"/>
<path d="M374.914 165V143.64H377.954V152.44H377.794C377.794 149.32 378.474 147.04 379.834 145.6C381.221 144.133 383.288 143.4 386.034 143.4H386.754V146.84H385.394C383.261 146.84 381.621 147.413 380.474 148.56C379.328 149.68 378.754 151.307 378.754 153.44V165H374.914Z" fill="#BEBEBE"/>
<path d="M392.361 165V143.64H396.201V165H392.361ZM389.081 146.68V143.64H396.201V146.68H389.081ZM393.441 140.2C392.587 140.2 391.947 139.973 391.521 139.52C391.121 139.067 390.921 138.493 390.921 137.8C390.921 137.107 391.121 136.533 391.521 136.08C391.947 135.627 392.587 135.4 393.441 135.4C394.294 135.4 394.921 135.627 395.321 136.08C395.747 136.533 395.961 137.107 395.961 137.8C395.961 138.493 395.747 139.067 395.321 139.52C394.921 139.973 394.294 140.2 393.441 140.2Z" fill="#BEBEBE"/>
<path d="M416.545 165V158.6H415.905V151.2C415.905 149.733 415.519 148.627 414.745 147.88C413.999 147.133 412.892 146.76 411.425 146.76C410.599 146.76 409.745 146.773 408.865 146.8C407.985 146.827 407.145 146.853 406.345 146.88C405.545 146.907 404.852 146.947 404.265 147V143.64C404.852 143.587 405.465 143.547 406.105 143.52C406.772 143.467 407.452 143.44 408.145 143.44C408.839 143.413 409.505 143.4 410.145 143.4C412.332 143.4 414.119 143.667 415.505 144.2C416.892 144.707 417.919 145.547 418.585 146.72C419.252 147.893 419.585 149.48 419.585 151.48V165H416.545ZM409.545 165.56C407.945 165.56 406.559 165.293 405.385 164.76C404.239 164.2 403.345 163.4 402.705 162.36C402.092 161.32 401.785 160.067 401.785 158.6C401.785 157.08 402.119 155.813 402.785 154.8C403.479 153.787 404.479 153.027 405.785 152.52C407.092 151.987 408.665 151.72 410.505 151.72H416.305V154.6H410.345C408.799 154.6 407.612 154.973 406.785 155.72C405.959 156.467 405.545 157.427 405.545 158.6C405.545 159.773 405.959 160.72 406.785 161.44C407.612 162.16 408.799 162.52 410.345 162.52C411.252 162.52 412.119 162.36 412.945 162.04C413.772 161.693 414.452 161.133 414.985 160.36C415.545 159.56 415.852 158.467 415.905 157.08L416.945 158.6C416.812 160.12 416.439 161.4 415.825 162.44C415.239 163.453 414.412 164.227 413.345 164.76C412.305 165.293 411.039 165.56 409.545 165.56Z" fill="#BEBEBE"/>
<path d="M444.655 165.72C443.135 165.72 441.735 165.44 440.455 164.88C439.175 164.32 438.055 163.533 437.095 162.52C436.161 161.507 435.428 160.333 434.895 159C434.388 157.667 434.135 156.227 434.135 154.68V153.96C434.135 152.44 434.388 151.013 434.895 149.68C435.401 148.347 436.108 147.173 437.015 146.16C437.948 145.147 439.041 144.36 440.295 143.8C441.575 143.213 442.988 142.92 444.535 142.92C446.161 142.92 447.641 143.267 448.975 143.96C450.308 144.627 451.401 145.68 452.255 147.12C453.108 148.56 453.588 150.427 453.695 152.72L452.095 150.16V135.8H455.935V165H452.895V155.52H454.015C453.908 157.947 453.401 159.92 452.495 161.44C451.588 162.933 450.441 164.027 449.055 164.72C447.695 165.387 446.228 165.72 444.655 165.72ZM445.175 162.36C446.481 162.36 447.668 162.067 448.735 161.48C449.801 160.893 450.655 160.053 451.295 158.96C451.935 157.84 452.255 156.533 452.255 155.04V153.2C452.255 151.733 451.921 150.493 451.255 149.48C450.615 148.44 449.748 147.653 448.655 147.12C447.588 146.56 446.415 146.28 445.135 146.28C443.721 146.28 442.468 146.613 441.375 147.28C440.308 147.947 439.468 148.88 438.855 150.08C438.268 151.28 437.975 152.693 437.975 154.32C437.975 155.947 438.281 157.373 438.895 158.6C439.508 159.8 440.361 160.733 441.455 161.4C442.548 162.04 443.788 162.36 445.175 162.36Z" fill="#BEBEBE"/>
<path d="M472.393 165.72C470.526 165.72 468.913 165.4 467.553 164.76C466.193 164.12 465.086 163.28 464.233 162.24C463.379 161.173 462.739 159.987 462.313 158.68C461.913 157.373 461.713 156.04 461.713 154.68V153.96C461.713 152.573 461.913 151.227 462.313 149.92C462.739 148.613 463.379 147.44 464.233 146.4C465.086 145.333 466.166 144.493 467.473 143.88C468.806 143.24 470.366 142.92 472.153 142.92C474.473 142.92 476.379 143.427 477.873 144.44C479.393 145.427 480.513 146.707 481.233 148.28C481.979 149.853 482.353 151.533 482.353 153.32V155.04H463.393V152.16H479.553L478.673 153.72C478.673 152.2 478.433 150.893 477.953 149.8C477.473 148.68 476.753 147.813 475.793 147.2C474.833 146.587 473.619 146.28 472.153 146.28C470.633 146.28 469.366 146.627 468.353 147.32C467.366 148.013 466.619 148.96 466.113 150.16C465.633 151.36 465.393 152.747 465.393 154.32C465.393 155.84 465.633 157.213 466.113 158.44C466.619 159.64 467.393 160.6 468.433 161.32C469.473 162.013 470.793 162.36 472.393 162.36C474.073 162.36 475.433 161.987 476.473 161.24C477.539 160.493 478.179 159.627 478.393 158.64H481.993C481.699 160.107 481.113 161.373 480.233 162.44C479.353 163.507 478.246 164.32 476.913 164.88C475.579 165.44 474.073 165.72 472.393 165.72Z" fill="#BEBEBE"/>
<path d="M503.907 165.64C501.107 165.64 498.933 165.04 497.387 163.84C495.867 162.64 495.08 161 495.027 158.92H498.627C498.68 159.747 499.093 160.533 499.867 161.28C500.667 162 502.013 162.36 503.907 162.36C505.613 162.36 506.92 162.027 507.827 161.36C508.733 160.667 509.187 159.827 509.187 158.84C509.187 157.96 508.853 157.28 508.187 156.8C507.52 156.293 506.44 155.96 504.947 155.8L502.627 155.56C500.6 155.347 498.947 154.747 497.667 153.76C496.387 152.747 495.747 151.333 495.747 149.52C495.747 148.16 496.093 147 496.787 146.04C497.48 145.053 498.44 144.307 499.667 143.8C500.893 143.267 502.307 143 503.907 143C506.307 143 508.253 143.533 509.747 144.6C511.24 145.667 512.013 147.253 512.067 149.36H508.467C508.44 148.507 508.04 147.787 507.267 147.2C506.52 146.587 505.4 146.28 503.907 146.28C502.413 146.28 501.28 146.587 500.507 147.2C499.733 147.813 499.347 148.587 499.347 149.52C499.347 150.32 499.613 150.96 500.147 151.44C500.707 151.92 501.613 152.227 502.867 152.36L505.187 152.6C507.48 152.84 509.32 153.48 510.707 154.52C512.093 155.533 512.787 156.973 512.787 158.84C512.787 160.173 512.4 161.36 511.627 162.4C510.88 163.413 509.84 164.213 508.507 164.8C507.173 165.36 505.64 165.64 503.907 165.64Z" fill="#BEBEBE"/>
<path d="M528.192 165.72C526.325 165.72 524.685 165.4 523.272 164.76C521.859 164.12 520.659 163.28 519.672 162.24C518.712 161.173 517.979 159.987 517.472 158.68C516.992 157.373 516.752 156.04 516.752 154.68V153.96C516.752 152.6 517.005 151.267 517.512 149.96C518.019 148.627 518.765 147.44 519.752 146.4C520.739 145.333 521.939 144.493 523.352 143.88C524.765 143.24 526.379 142.92 528.192 142.92C530.005 142.92 531.619 143.24 533.032 143.88C534.445 144.493 535.645 145.333 536.632 146.4C537.619 147.44 538.365 148.627 538.872 149.96C539.379 151.267 539.632 152.6 539.632 153.96V154.68C539.632 156.04 539.379 157.373 538.872 158.68C538.392 159.987 537.659 161.173 536.672 162.24C535.712 163.28 534.525 164.12 533.112 164.76C531.699 165.4 530.059 165.72 528.192 165.72ZM528.192 162.28C529.792 162.28 531.152 161.933 532.272 161.24C533.419 160.52 534.285 159.56 534.872 158.36C535.485 157.16 535.792 155.813 535.792 154.32C535.792 152.8 535.485 151.44 534.872 150.24C534.259 149.04 533.379 148.093 532.232 147.4C531.112 146.707 529.765 146.36 528.192 146.36C526.645 146.36 525.299 146.707 524.152 147.4C523.005 148.093 522.125 149.04 521.512 150.24C520.899 151.44 520.592 152.8 520.592 154.32C520.592 155.813 520.885 157.16 521.472 158.36C522.085 159.56 522.952 160.52 524.072 161.24C525.219 161.933 526.592 162.28 528.192 162.28Z" fill="#BEBEBE"/>
<path d="M545.943 165V142.56C545.943 140.187 546.57 138.44 547.823 137.32C549.076 136.2 550.916 135.64 553.343 135.64H555.983V138.84H552.703C551.716 138.84 550.956 139.12 550.423 139.68C549.89 140.213 549.623 140.96 549.623 141.92V165H545.943ZM542.983 146.76V143.88H556.383V146.76H542.983Z" fill="#BEBEBE"/>
<path d="M569.172 165.24C567.572 165.24 566.185 165.013 565.012 164.56C563.865 164.107 562.972 163.333 562.332 162.24C561.719 161.12 561.412 159.613 561.412 157.72V137.16H565.092V158.2C565.092 159.347 565.399 160.24 566.012 160.88C566.652 161.493 567.545 161.8 568.692 161.8H572.452V165.24H569.172ZM557.732 146.52V143.64H572.452V146.52H557.732Z" fill="#BEBEBE"/>
<path d="M584.123 165L588.443 144.36H593.643L598.683 165H595.403L590.363 144.44H591.643L587.283 165H584.123ZM582.163 165V161.96H586.603V165H582.163ZM581.283 165L575.243 143.64H578.923L584.803 165H581.283ZM596.203 165V161.96H600.643V165H596.203ZM598.003 165L603.123 143.64H606.603L601.363 165H598.003Z" fill="#BEBEBE"/>
<path d="M624.553 165V158.6H623.913V151.2C623.913 149.733 623.526 148.627 622.753 147.88C622.006 147.133 620.9 146.76 619.433 146.76C618.606 146.76 617.753 146.773 616.873 146.8C615.993 146.827 615.153 146.853 614.353 146.88C613.553 146.907 612.86 146.947 612.273 147V143.64C612.86 143.587 613.473 143.547 614.113 143.52C614.78 143.467 615.46 143.44 616.153 143.44C616.846 143.413 617.513 143.4 618.153 143.4C620.34 143.4 622.126 143.667 623.513 144.2C624.9 144.707 625.926 145.547 626.593 146.72C627.26 147.893 627.593 149.48 627.593 151.48V165H624.553ZM617.553 165.56C615.953 165.56 614.566 165.293 613.393 164.76C612.246 164.2 611.353 163.4 610.713 162.36C610.1 161.32 609.793 160.067 609.793 158.6C609.793 157.08 610.126 155.813 610.793 154.8C611.486 153.787 612.486 153.027 613.793 152.52C615.1 151.987 616.673 151.72 618.513 151.72H624.313V154.6H618.353C616.806 154.6 615.62 154.973 614.793 155.72C613.966 156.467 613.553 157.427 613.553 158.6C613.553 159.773 613.966 160.72 614.793 161.44C615.62 162.16 616.806 162.52 618.353 162.52C619.26 162.52 620.126 162.36 620.953 162.04C621.78 161.693 622.46 161.133 622.993 160.36C623.553 159.56 623.86 158.467 623.913 157.08L624.953 158.6C624.82 160.12 624.446 161.4 623.833 162.44C623.246 163.453 622.42 164.227 621.353 164.76C620.313 165.293 619.046 165.56 617.553 165.56Z" fill="#BEBEBE"/>
<path d="M634.641 165V143.64H637.681V152.44H637.521C637.521 149.32 638.201 147.04 639.561 145.6C640.948 144.133 643.014 143.4 645.761 143.4H646.481V146.84H645.121C642.988 146.84 641.348 147.413 640.201 148.56C639.054 149.68 638.481 151.307 638.481 153.44V165H634.641Z" fill="#BEBEBE"/>
<path d="M659.893 165.72C658.026 165.72 656.413 165.4 655.053 164.76C653.693 164.12 652.586 163.28 651.733 162.24C650.879 161.173 650.239 159.987 649.813 158.68C649.413 157.373 649.213 156.04 649.213 154.68V153.96C649.213 152.573 649.413 151.227 649.813 149.92C650.239 148.613 650.879 147.44 651.733 146.4C652.586 145.333 653.666 144.493 654.973 143.88C656.306 143.24 657.866 142.92 659.653 142.92C661.973 142.92 663.879 143.427 665.373 144.44C666.893 145.427 668.013 146.707 668.733 148.28C669.479 149.853 669.853 151.533 669.853 153.32V155.04H650.893V152.16H667.053L666.173 153.72C666.173 152.2 665.933 150.893 665.453 149.8C664.973 148.68 664.253 147.813 663.293 147.2C662.333 146.587 661.119 146.28 659.653 146.28C658.133 146.28 656.866 146.627 655.853 147.32C654.866 148.013 654.119 148.96 653.613 150.16C653.133 151.36 652.893 152.747 652.893 154.32C652.893 155.84 653.133 157.213 653.613 158.44C654.119 159.64 654.893 160.6 655.933 161.32C656.973 162.013 658.293 162.36 659.893 162.36C661.573 162.36 662.933 161.987 663.973 161.24C665.04 160.493 665.679 159.627 665.893 158.64H669.493C669.199 160.107 668.613 161.373 667.733 162.44C666.853 163.507 665.746 164.32 664.413 164.88C663.08 165.44 661.573 165.72 659.893 165.72Z" fill="#BEBEBE"/>
<defs>
<linearGradient id="paint0_linear_20_3" x1="108.5" y1="22.5" x2="82.1878" y2="163.942" gradientUnits="userSpaceOnUse">
<stop stop-color="#A670E6"/>
<stop offset="1" stop-color="#5B39E3"/>
</linearGradient>
<linearGradient id="paint1_linear_20_3" x1="108.5" y1="22.5" x2="82.1878" y2="163.942" gradientUnits="userSpaceOnUse">
<stop stop-color="#A670E6"/>
<stop offset="1" stop-color="#5B39E3"/>
</linearGradient>
</defs>
</svg>
