<svg width="157" height="185" viewBox="0 0 157 185" fill="none" xmlns="http://www.w3.org/2000/svg">
<path d="M65.5742 0.0670662C58.9091 0.197452 52.2698 -0.105213 45.652 0.0408577C41.4849 0.216476 37.111 0.0367582 32.9223 0.100003C29.4612 0.152269 26.2436 -0.186369 22.8595 0.765946C20.3993 1.46786 18.1797 2.83866 16.4446 4.7275C14.7067 6.63729 13.201 9.38186 11.8029 11.6219L4.6604 23.2427C3.62725 24.9558 2.31854 26.7819 1.30445 28.6111C0.656126 29.7806 0.412987 31.1189 0.412987 32.4577V40.965C0.412987 41.5239 0.863578 41.9769 1.41941 41.9769H18.8686C19.4244 41.9769 19.875 41.5239 19.875 40.965V37.664C19.875 36.9265 20.0262 36.1929 20.3812 35.5476C21.476 33.558 22.9652 31.7065 24.112 29.7712C25.7414 27.5247 28.6193 21.5287 30.5929 20.0024C32.2087 19.6232 35.9888 19.7244 37.8205 19.7248L59.7062 19.7263C62.0648 19.7245 65.08 19.6479 67.3722 19.8713C68.6483 20.785 69.9924 23.6873 70.8197 25.1184L75.9479 33.9929C77.7061 36.9988 79.7441 39.9303 81.4042 42.9519C84.0904 47.841 82.0202 50.9213 79.4261 55.1652C78.3281 56.9609 77.14 59.1421 76.0687 61.0344L70.7261 70.6248C69.0458 73.5766 66.8997 77.9283 63.032 78.3781C59.6353 78.7728 55.9291 78.4338 52.459 78.4833C48.6109 78.5314 44.7618 78.543 40.9133 78.5183C37.8724 78.5005 34.4968 78.5183 31.0166 78.9013C28.4784 79.3834 24.181 79.959 20.0793 83.3856C17.0577 85.9098 14.0636 89.8796 11.4807 92.8844C9.87644 94.8521 8.03816 96.6923 6.52787 98.7227C3.69307 102.533 0.0948568 106.733 0.0242561 111.745C-0.018366 114.772 0.0204817 117.779 0.0318039 120.796L0.0373401 136.024C0.043127 138.758 0.0306959 141.49 0 144.223C0 152.901 2.03962 152.901 11.5458 152.901L24.8306 152.876L49.7396 152.886C51.4567 152.887 56.1518 152.886 59.4153 152.886L61.5367 152.886C61.9273 152.886 62.2826 152.658 62.3572 152.273C62.7675 150.153 62.1333 145.416 62.7934 143.385C63.7214 140.532 64.9265 138.586 66.4649 136.003C66.9994 135.105 67.7204 134.094 68.1094 133.125C68.1733 132.966 68.0529 132.799 67.8822 132.799C64.6812 132.805 61.096 132.888 58.1825 132.892L40.9007 132.913L29.1597 132.874C26.5853 132.88 22.6467 132.968 20.1296 132.713C20.1251 129.46 19.6083 116.076 20.4773 113.833C21.291 111.733 27.796 104.406 29.6036 102.584C31.6421 100.53 34.1717 98.495 37.1955 98.5046L53.009 98.6144C56.3599 98.6084 60.7891 98.7905 64.0746 98.492C68.9885 98.0452 75.4578 96.3826 79.094 92.9806C81.0092 91.1369 82.4715 88.0343 83.9122 85.7995C86.8238 81.2813 89.2252 76.4711 91.9611 71.8558L98.208 61.4867C100.504 57.6621 103.059 54.1958 102.913 49.4702C102.82 46.4997 103.082 43.3541 101.997 40.5167C100.973 37.9232 99.2612 35.2092 97.8472 32.7806L90.3141 19.9803C88.1749 16.2951 86.2336 12.4752 83.9767 8.8502C83.0704 7.39517 81.9054 5.02318 80.747 3.87906C76.513 -0.302385 71.1095 -0.0412089 65.5742 0.0670662Z" fill="url(#paint0_linear_28_2)"/>
<path d="M130.974 50.3865C131.924 50.3647 132.97 50.433 133.903 50.6182C136.611 51.155 138.441 52.6066 139.95 54.8824C141.938 57.8817 143.586 61.218 145.381 64.3459C147.422 67.9027 149.633 71.3493 151.658 74.9199C153.094 77.4542 156.086 81.8323 156.706 84.4744C157.085 86.0899 157.125 88.0364 156.663 89.6397C155.708 92.9512 151.734 99.1619 149.91 102.266C147.833 105.802 145.862 109.34 143.926 112.957C143.35 114.034 141.029 117.278 141.205 118.298C141.458 119.772 142.889 121.655 143.62 122.969C146.784 128.65 150.269 134.149 153.463 139.81C154.436 141.535 155.817 143.496 156.391 145.385C156.971 147.291 156.847 149.667 156.405 151.589C155.923 153.677 148.349 165.662 146.804 168.316C144.339 172.551 142.219 177.034 139.424 181.067C138.787 182 137.968 182.793 137.018 183.399C133.998 185.283 129.895 184.915 126.43 184.913L117.251 184.915L105.657 184.905C101.014 184.924 93.8416 185.818 90.7429 181.711C89.1497 179.599 87.6838 176.648 86.3629 174.31C83.9012 169.859 81.3846 165.439 78.8137 161.052C77.5954 158.678 75.3989 155.969 74.3895 153.384C73.61 151.387 72.91 147.602 73.4656 145.504C74.4428 141.81 77.1088 138.08 79.0205 134.805C80.9805 131.447 82.9063 128.149 84.7581 124.749C85.9945 122.478 87.4735 120.225 88.4085 117.862C87.2269 114.741 86.0086 112.6 84.3702 109.691C83.4327 108.027 81.6936 104.951 81.2483 103.13C82.0775 101.932 85.4722 100.677 86.5793 99.4032C88.3082 97.4152 88.6137 94.8922 89.8655 92.7542C90.0604 92.4214 90.5348 92.4672 90.7097 92.8111C91.681 94.7207 92.9756 96.5097 94.0324 98.3645C95.0841 100.21 99.4228 109.331 100.996 109.924C101.495 110.112 102.042 110.164 102.571 110.189C106.03 110.353 109.533 110.193 112.999 110.222C117.572 110.261 122.246 110.47 126.81 110.266C127.219 110.247 127.833 110.23 128.197 110.038C128.866 109.686 129.454 108.86 129.874 108.247C130.662 107.098 131.3 105.828 131.996 104.622C133.835 101.432 135.537 98.2259 137.275 94.9817C138.655 92.4053 140.429 89.7333 141.419 86.9814C140.847 85.2035 138.324 80.8077 137.275 78.9802C134.832 74.721 132.087 69.0933 129.1 65.3173C125.856 64.6342 107.773 65.5005 106.818 64.4992C106.97 63.5186 110.051 58.8188 110.639 57.1577C111.179 55.6327 111.866 51.5082 112.568 50.686C113.903 50.2089 128.331 50.4097 130.974 50.3865ZM122.064 170.41C129.51 170.309 128.29 171.439 132.249 164.774C134.518 160.974 136.701 157.123 138.798 153.226C139.472 151.996 140.899 149.641 141.336 148.43C141.151 147.783 140.851 146.888 140.525 146.293C138.64 142.86 130.797 128.137 128.708 126.119C128.045 125.479 109.499 125.749 107.518 125.778C106.564 125.785 105.05 125.856 104.145 125.791C100.74 125.55 100.471 126.367 98.7565 129.137C97.1553 131.724 95.8198 134.667 94.3167 137.33C93.1276 139.683 88.882 146.401 88.3808 148.483C88.5121 149.366 89.0088 150.249 89.4194 151.031C90.9185 153.887 92.7084 156.587 94.3298 159.371C96.0054 162.25 97.5402 165.24 99.3105 168.058C99.6603 168.615 100.249 169.683 100.799 170.043C101.826 170.716 119.551 170.504 122.064 170.41Z" fill="url(#paint1_linear_28_2)"/>
<defs>
<linearGradient id="paint0_linear_28_2" x1="25.4302" y1="22.5" x2="-45.8277" y2="112.279" gradientUnits="userSpaceOnUse">
<stop stop-color="#A670E6"/>
<stop offset="1" stop-color="#5B39E3"/>
</linearGradient>
<linearGradient id="paint1_linear_28_2" x1="25.4302" y1="22.5" x2="-45.8277" y2="112.279" gradientUnits="userSpaceOnUse">
<stop stop-color="#A670E6"/>
<stop offset="1" stop-color="#5B39E3"/>
</linearGradient>
</defs>
</svg>
